<svg width="31" height="34" viewBox="0 0 31 34" fill="none" xmlns="http://www.w3.org/2000/svg">
<path d="M3.17409 8.98643L15.4739 1.07941C15.6411 0.971896 15.8562 0.973688 16.0216 1.08398L27.8594 8.97583C28.1687 9.18201 28.1529 9.64157 27.8301 9.82598L22.6314 12.7967C22.4726 12.8874 22.277 12.8843 22.1213 12.7884L16.5215 9.3424C16.0543 9.05489 15.4674 9.04535 14.9911 9.31752L8.88366 12.8075C8.72995 12.8953 8.54124 12.8953 8.38752 12.8075L3.1964 9.84114C2.87051 9.65492 2.85836 9.1894 3.17409 8.98643ZM1.28309 27.5845C1.11003 27.5012 1 27.3261 1 27.134V12.306C1 11.9104 1.43762 11.6715 1.77038 11.8854L6.88902 15.1759C7.03213 15.2679 7.11864 15.4264 7.11864 15.5965V21.6453C7.11864 22.1375 7.36013 22.5984 7.76483 22.8785L13.5134 26.8583C13.6483 26.9517 13.7288 27.1054 13.7288 27.2694V32.7812C13.7288 33.1497 13.3439 33.3916 13.0119 33.2317L1.28309 27.5845ZM23.6453 15.1484L28.7736 11.8517C29.1008 11.6413 29.5323 11.8687 29.5438 12.2575L29.9811 27.1283C29.9869 27.3256 29.8761 27.5079 29.6983 27.5935L17.8875 33.2802C17.5684 33.4338 17.1952 33.2163 17.1717 32.863L16.7987 27.2684C16.7872 27.0956 16.866 26.929 17.007 26.8283L23.2129 22.3955C23.6403 22.0902 23.8769 21.5836 23.8366 21.0599L23.4172 15.6073C23.4031 15.424 23.4907 15.2478 23.6453 15.1484Z" fill="#000DFF"/>
<path d="M3.1964 9.84114L8.38752 12.8075C8.54124 12.8953 8.72995 12.8953 8.88366 12.8075L14.9911 9.31752C15.4674 9.04535 16.0543 9.05489 16.5215 9.3424L22.1213 12.7884C22.277 12.8843 22.4726 12.8874 22.6314 12.7967L27.8301 9.82598C28.1529 9.64157 28.1687 9.18201 27.8594 8.97583L16.0216 1.08398C15.8562 0.973688 15.6411 0.971896 15.4739 1.07941L3.17409 8.98643C2.85836 9.1894 2.87051 9.65492 3.1964 9.84114ZM3.1964 9.84114L2.94833 10.2753M1.28309 27.5845L1.06762 28.032M1.28309 27.5845C1.11003 27.5012 1 27.3261 1 27.134V12.306C1 11.9104 1.43762 11.6715 1.77038 11.8854L6.88902 15.1759C7.03213 15.2679 7.11864 15.4264 7.11864 15.5965V21.6453C7.11864 22.1375 7.36013 22.5984 7.76483 22.8785M1.28309 27.5845L13.0119 33.2317C13.3439 33.3916 13.7288 33.1497 13.7288 32.7812V27.2694C13.7288 27.1054 13.6483 26.9517 13.5134 26.8583L7.76483 22.8785M7.76483 22.8785L8.04943 22.4674M23.6453 15.1484L28.7736 11.8517C29.1008 11.6413 29.5323 11.8687 29.5438 12.2575L29.9811 27.1283C29.9869 27.3256 29.8761 27.5079 29.6983 27.5935L17.8875 33.2802C17.5684 33.4338 17.1952 33.2163 17.1717 32.863L16.7987 27.2684C16.7872 27.0956 16.866 26.929 17.007 26.8283L23.2129 22.3955C23.6403 22.0902 23.8769 21.5836 23.8366 21.0599L23.4172 15.6073C23.4031 15.424 23.4907 15.2478 23.6453 15.1484Z" stroke="#000DFF"/>
</svg>
