<svg width="130" height="34" viewBox="0 0 130 34" fill="none" xmlns="http://www.w3.org/2000/svg">
<path d="M2.67409 8.68164L14.9739 0.774622C15.1411 0.667107 15.3562 0.668899 15.5216 0.779186L27.3594 8.67104C27.6687 8.87722 27.6529 9.33678 27.3301 9.52119L22.1314 12.4919C21.9726 12.5826 21.777 12.5795 21.6213 12.4836L16.0215 9.03761C15.5543 8.7501 14.9674 8.74056 14.4911 9.01273L8.38366 12.5027C8.22995 12.5905 8.04124 12.5905 7.88752 12.5027L2.6964 9.53635L2.44833 9.97047L2.6964 9.53635C2.37051 9.35013 2.35836 8.88461 2.67409 8.68164ZM0.783092 27.2797L0.567624 27.7272L0.783091 27.2797C0.610031 27.1964 0.5 27.0213 0.5 26.8292V12.0012C0.5 11.6056 0.937623 11.3667 1.27038 11.5806L6.38902 14.8711C6.53213 14.9631 6.61864 15.1216 6.61864 15.2917V21.3405C6.61864 21.8327 6.86013 22.2936 7.26483 22.5737L7.54943 22.1626L7.26483 22.5737L13.0134 26.5535C13.1483 26.6469 13.2288 26.8006 13.2288 26.9646V32.4764C13.2288 32.8449 12.8439 33.0868 12.5119 32.9269L0.783092 27.2797ZM23.1453 14.8436L28.2736 11.5469C28.6008 11.3365 29.0323 11.5639 29.0438 11.9527L29.4811 26.8235C29.4869 27.0208 29.3761 27.2031 29.1983 27.2887L17.3875 32.9754C17.0684 33.129 16.6952 32.9115 16.6717 32.5582L16.2987 26.9636C16.2872 26.7908 16.366 26.6242 16.507 26.5235L22.7129 22.0907C23.1403 21.7854 23.3769 21.2788 23.3366 20.7551L22.9172 15.3025C22.9031 15.1192 22.9907 14.943 23.1453 14.8436Z" fill="#000DFF" stroke="#000DFF"/>
<path d="M40.8457 25.6279L39 8.44043H42.3594L43.3066 19.29L44.2734 8.44043H47.4766L48.3945 19.29L49.3125 8.44043H52.7109L50.8359 25.6279H46.7148L45.8555 17.3564L45.0352 25.6279H40.8457Z" fill="black"/>
<path d="M54.7363 25.6279V8.44043H61.6113V11.7607H58.2324V15.1104H61.4746V18.3428H58.2324V22.2783H61.8359V25.6279H54.7363Z" fill="black"/>
<path d="M63.9785 25.6279V8.44043H70.8535V11.79H67.4355V14.5244H70.6777V17.835H67.4355V25.6279H63.9785Z" fill="black"/>
<path d="M72.8105 25.6279V8.44043H76.1309V25.6279H72.8105Z" fill="black"/>
<path d="M79.9727 25.6279V11.7412H77.9316V8.44043H85.4512V11.7412H83.4102V25.6279H79.9727Z" fill="black"/>
<path d="M87.4082 25.6279V8.44043H90.8262V14.583H92.4473V8.44043H95.8652V25.6279H92.4473V17.835H90.8262V25.6279H87.4082Z" fill="black"/>
<path d="M102.49 25.7842C101.117 25.7842 100.065 25.3708 99.3359 24.5439C98.6133 23.7106 98.252 22.5094 98.252 20.9404V12.7764C98.252 11.305 98.61 10.1885 99.3262 9.42676C100.049 8.66504 101.104 8.28418 102.49 8.28418C103.877 8.28418 104.928 8.66504 105.645 9.42676C106.367 10.1885 106.729 11.305 106.729 12.7764V20.9404C106.729 22.5094 106.364 23.7106 105.635 24.5439C104.912 25.3708 103.864 25.7842 102.49 25.7842ZM102.52 22.6201C103.04 22.6201 103.301 22.1156 103.301 21.1064V12.7178C103.301 11.8714 103.047 11.4482 102.539 11.4482C101.966 11.4482 101.68 11.8812 101.68 12.7471V21.126C101.68 21.6598 101.745 22.0439 101.875 22.2783C102.005 22.5062 102.22 22.6201 102.52 22.6201Z" fill="black"/>
<path d="M113.197 25.7842C111.628 25.7842 110.495 25.3936 109.799 24.6123C109.109 23.8311 108.764 22.5876 108.764 20.8818V19.2021H112.162V21.3506C112.162 21.7477 112.221 22.0602 112.338 22.2881C112.462 22.5094 112.673 22.6201 112.973 22.6201C113.285 22.6201 113.5 22.529 113.617 22.3467C113.741 22.1644 113.803 21.8649 113.803 21.4482C113.803 20.9209 113.751 20.4814 113.646 20.1299C113.542 19.7718 113.36 19.4333 113.1 19.1143C112.846 18.7887 112.491 18.4111 112.035 17.9814L110.492 16.5166C109.34 15.4294 108.764 14.1859 108.764 12.7861C108.764 11.3213 109.102 10.2048 109.779 9.43652C110.463 8.66829 111.449 8.28418 112.738 8.28418C114.314 8.28418 115.43 8.7041 116.088 9.54395C116.752 10.3838 117.084 11.6598 117.084 13.3721H113.588V12.1904C113.588 11.9561 113.52 11.7738 113.383 11.6436C113.253 11.5133 113.074 11.4482 112.846 11.4482C112.572 11.4482 112.37 11.5264 112.24 11.6826C112.117 11.8324 112.055 12.0277 112.055 12.2686C112.055 12.5094 112.12 12.7699 112.25 13.0498C112.38 13.3298 112.637 13.652 113.021 14.0166L115.004 15.9209C115.401 16.2985 115.766 16.6989 116.098 17.1221C116.43 17.5387 116.697 18.027 116.898 18.5869C117.1 19.1403 117.201 19.8174 117.201 20.6182C117.201 22.2327 116.902 23.499 116.303 24.417C115.71 25.3285 114.675 25.7842 113.197 25.7842Z" fill="black"/>
<path d="M120.828 25.6279V11.7412H118.787V8.44043H126.307V11.7412H124.266V25.6279H120.828Z" fill="black"/>
</svg>
